HIERARCHY
ROOT RootJoint
{
    OFFSET   0.000000   0.000000   0.000000
    CHANNELS 6 Xposition Yposition Zposition Xrotation Yrotation Zrotation
    JOINT pelvis_lowerback
    {
        OFFSET   0.000000   0.093605   0.000000
        CHANNELS 3 Xrotation Yrotation Zrotation
        JOINT lowerback_torso
        {
            OFFSET   0.000000   0.100000   0.000000
            CHANNELS 3 Xrotation Yrotation Zrotation
            JOINT torso_head
            {
                OFFSET   0.000000   0.282350   0.000000
                CHANNELS 3 Xrotation Yrotation Zrotation
                End Site
                {
                    OFFSET   0.000000   0.192650   0.000000
                }
            }
            JOINT rTorso_Clavicle
            {
                OFFSET  -0.001000   0.157500   0.000000
                CHANNELS 3 Xrotation Yrotation Zrotation
                JOINT rShoulder
                {
                    OFFSET  -0.117647   0.000000   0.000000
                    CHANNELS 3 Xrotation Yrotation Zrotation
                    JOINT rElbow
                    {
                        OFFSET  -0.245000   0.000000   0.000000
                        CHANNELS 3 Xrotation Yrotation Zrotation
                        JOINT rWrist
                        {
                            OFFSET  -0.240000   0.000000   0.000000
                            CHANNELS 3 Xrotation Yrotation Zrotation
                            End Site
                            {
                                OFFSET  -0.116353  -0.002500   0.000000
                            }
                        }
                    }
                }
            }
            JOINT lTorso_Clavicle
            {
                OFFSET   0.001000   0.157500   0.000000
                CHANNELS 3 Xrotation Yrotation Zrotation
                JOINT lShoulder
                {
                    OFFSET   0.117647   0.000000   0.000000
                    CHANNELS 3 Xrotation Yrotation Zrotation
                    JOINT lElbow
                    {
                        OFFSET   0.245000   0.000000   0.000000
                        CHANNELS 3 Xrotation Yrotation Zrotation
                        JOINT lWrist
                        {
                            OFFSET   0.240000   0.000000   0.000000
                            CHANNELS 3 Xrotation Yrotation Zrotation
                            End Site
                            {
                                OFFSET   0.116353  -0.002500   0.000000
                            }
                        }
                    }
                }
            }
        }
    }
    JOINT rHip
    {
        OFFSET  -0.100000  -0.051395   0.000000
        CHANNELS 3 Xrotation Yrotation Zrotation
        JOINT rKnee
        {
            OFFSET   0.000000  -0.410000   0.000000
            CHANNELS 3 Xrotation Yrotation Zrotation
            JOINT rAnkle
            {
                OFFSET   0.000000  -0.390000   0.000000
                CHANNELS 3 Xrotation Yrotation Zrotation
                JOINT rToeJoint
                {
                    OFFSET   0.000000  -0.050000   0.130000
                    CHANNELS 3 Xrotation Yrotation Zrotation
                    End Site
                    {
                        OFFSET  -0.010000   0.002000   0.060000
                    }
                }
            }
        }
    }
    JOINT lHip
    {
        OFFSET   0.100000  -0.051395   0.000000
        CHANNELS 3 Xrotation Yrotation Zrotation
        JOINT lKnee
        {
            OFFSET   0.000000  -0.410000   0.000000
            CHANNELS 3 Xrotation Yrotation Zrotation
            JOINT lAnkle
            {
                OFFSET   0.000000  -0.390000   0.000000
                CHANNELS 3 Xrotation Yrotation Zrotation
                JOINT lToeJoint
                {
                    OFFSET   0.000000  -0.050000   0.130000
                    CHANNELS 3 Xrotation Yrotation Zrotation
                    End Site
                    {
                        OFFSET   0.010000   0.002000   0.060000
                    }
                }
            }
        }
    }
}
MOTION
Frames: 8
Frame Time:   0.008333
 -2.477331   0.865525   4.498649  -4.444287  -8.114642  -0.717797  13.986637  -0.615877  -1.405883  -5.890816  -1.106623   0.819237  -3.152367   0.887028   0.537415  -6.161914  -5.932381   8.887819 -32.811074  -7.463949  23.092387   0.011750  76.672476  -0.009050   1.673784   5.439858 -27.712335  -6.313878   2.355309  -6.756712 -38.104117   7.675374 -25.663661   0.131763 -77.275044   0.111227  -2.903369  -6.584003  29.793209  -8.382588  -2.388777  -3.886852  44.917345  -0.003699  -0.003967 -24.032915  -5.607210   2.315986 -11.998384   0.000334  -0.000602 -16.539377   0.244476   2.088725  44.113820  -0.002963  -0.006176 -23.250138   7.224328   6.128302  -0.025556   0.000524   0.000010
 -2.477125   0.862160   4.498077  -4.610235  -8.300184  -0.738078  14.155398  -0.587992  -1.467902  -5.811940  -1.076970   0.803499  -3.280796   0.922899   0.528914  -5.919252  -5.312295   8.939793 -31.136433  -6.927608  24.105116  -0.093521  75.469039   0.088417   2.083243   5.812739 -27.750675  -6.208011   1.931349  -6.793308 -36.990358   7.512420 -26.319578   0.089676 -77.053577   0.074619  -2.737709  -6.809042  29.651887  -8.774458  -2.221716  -3.927246  46.051243  -0.003137  -0.003799 -24.794899  -5.571465   2.350466 -11.710676   0.000196  -0.000561 -17.185128   0.309843   2.094841  45.687136  -0.002885  -0.006169 -23.597280   7.370594   6.185657  -0.659083   0.000950  -0.000007
 -2.476866   0.858953   4.497679  -4.778926  -8.528961  -0.767526  14.306290  -0.534942  -1.523322  -5.727049  -1.017230   0.789820  -3.421649   0.954638   0.510731  -5.637340  -4.700089   9.043124 -29.516549  -6.425627  25.079307  -0.163334  74.258776   0.152134   2.284568   5.786331 -27.427148  -6.067739   1.542942  -6.858613 -35.909334   7.377954 -26.944731   0.055061 -76.798088   0.044486  -2.694882  -6.807063  29.340962  -9.111809  -2.063570  -3.965990  47.085302  -0.002878  -0.004025 -25.521593  -5.533579   2.388510 -11.404596   0.000094  -0.000659 -17.795116   0.402150   2.111931  47.211754  -0.002844  -0.006355 -23.845120   7.538057   6.244050  -1.426421   0.001458   0.000025
 -2.476547   0.855863   4.497423  -4.940545  -8.775387  -0.804887  14.446363  -0.467131  -1.569621  -5.640599  -0.941918   0.785852  -3.559268   0.984199   0.491533  -5.354651  -4.122626   9.184655 -27.989000  -5.948985  26.002337  -0.202086  73.111125   0.186601   2.403433   5.622679 -26.986602  -5.920244   1.192821  -6.947457 -34.885363   7.261389 -27.535867   0.029262 -76.547328   0.022135  -2.704530  -6.715957  28.997594  -9.422202  -1.918666  -4.002843  48.055400  -0.002763  -0.004379 -26.209120  -5.498498   2.426311 -11.112983   0.000038  -0.000809 -18.354249   0.491988   2.132282  48.668712  -0.002885  -0.006707 -24.054835   7.701207   6.301353  -2.241520   0.001912   0.000281
 -2.476162   0.852879   4.497272  -5.091296  -9.020073  -0.847685  14.580875  -0.394028  -1.605729  -5.553332  -0.861255   0.792377  -3.690120   1.011830   0.473464  -5.080313  -3.583841   9.345744 -26.558064  -5.493171  26.868287  -0.219778  72.033143   0.201590   2.492548   5.417751 -26.520086  -5.773845   0.875797  -7.046891 -33.922566   7.155164 -28.090704   0.010617 -76.307918   0.006070  -2.733931  -6.592169  28.662716  -9.714407  -1.785360  -4.038373  48.972817  -0.002668  -0.004679 -26.859530  -5.466249   2.463532 -10.841879   0.000014  -0.000935 -18.871215   0.573182   2.152741  50.038217  -0.002917  -0.006998 -24.247419   7.856351   6.356498  -3.032772   0.002207   0.000601
 -2.475711   0.849997   4.497208  -5.230858  -9.253465  -0.894325  14.712708  -0.320416  -1.631551  -5.464569  -0.780608   0.808360  -3.812977   1.037678   0.456998  -4.817598  -3.083353   9.514060 -25.221595  -5.056136  27.675597  -0.223745  71.023655   0.204127   2.569442   5.202452 -26.056150  -5.632263   0.587092  -7.148298 -33.020682   7.054842 -28.608851  -0.002508 -76.081802  -0.005171  -2.770390  -6.457176  28.344795  -9.990632  -1.661509  -4.073082  49.842024  -0.002538  -0.004860 -27.474366  -5.436577   2.499905 -10.592622   0.000011  -0.001011 -19.352778   0.646320   2.171721  51.320801  -0.002882  -0.007133 -24.428756   8.002510   6.408771  -3.781471   0.002342   0.000883
 -2.475192   0.847222   4.497219  -5.359294  -9.471816  -0.943553  14.842698  -0.248603  -1.647827  -5.374260  -0.702588   0.832368  -3.927478   1.061877   0.442198  -4.567768  -2.619470   9.682257 -23.975319  -4.637055  28.425358  -0.218977  70.079588   0.198895   2.640543   4.987984 -25.604650  -5.497258   0.323143  -7.246750 -32.177725   6.958202 -29.091101  -0.011457 -75.869440  -0.012776  -2.808437  -6.320351  28.044704 -10.251923  -1.545453  -4.107601  50.665183  -0.002362  -0.004918 -28.054344  -5.409313   2.535052 -10.365580   0.000024  -0.001036 -19.802695   0.712772   2.187946  52.521969  -0.002764  -0.007110 -24.600798   8.139389   6.457884  -4.486927   0.002347   0.001097
 -2.474727   0.846486   4.497931  -5.460525  -9.606091  -0.999977  14.697789  -0.173891  -1.676052  -5.158740  -0.675223   0.889972  -4.041198   1.105833   0.428051  -4.328101  -2.181801   9.801912 -22.281771  -4.162770  29.379591  -0.284739  67.725448   0.255884   3.068655   5.541914 -25.382701  -5.287608   0.103700  -7.277021 -30.871353   6.869814 -29.719310  -0.076781 -74.535869  -0.073231  -2.495413  -6.839143  27.757392 -10.202927  -1.403319  -4.129748  50.846584  -0.001805  -0.004019 -28.084274  -5.377772   2.948669 -10.486956   0.000359  -0.000773 -20.153572   0.745917   2.206567  53.387735  -0.002376  -0.006366 -23.972976   8.341968   6.268909  -6.087621   0.000874   0.000892
